<svg width="24" height="24" viewBox="0 0 24 24" fill="none" xmlns="http://www.w3.org/2000/svg">
<path d="M14 12V8.5C14 7.672 13.328 7 12.5 7V7C11.672 7 11 7.672 11 8.5" stroke="#303B9F" stroke-width="1.5" stroke-linecap="round" stroke-linejoin="round"/>
<path d="M14 9.5C14 8.672 14.672 8 15.5 8V8C16.328 8 17 8.672 17 9.5V13" stroke="#303B9F" stroke-width="1.5" stroke-linecap="round" stroke-linejoin="round"/>
<path d="M11.0001 12V3.5C11.0001 2.672 10.3281 2 9.50012 2V2C8.67212 2 8.00012 2.672 8.00012 3.5V11V14L6.11612 12.116C5.50012 11.5 4.50012 11.5 3.88412 12.116V12.116C3.37012 12.63 3.29012 13.435 3.69312 14.04L7.21912 19.328C8.33212 20.997 10.2051 22 12.2111 22H14.0001C17.3141 22 20.0001 19.314 20.0001 16V12V10.5C20.0001 9.672 19.3281 9 18.5001 9V9C17.6721 9 17.0001 9.672 17.0001 10.5" stroke="#303B9F" stroke-width="1.5" stroke-linecap="round" stroke-linejoin="round"/>
</svg>
